<?xml version="1.0" encoding="UTF-8" standalone="no"?>
<!-- Generator: Adobe Illustrator 18.1.1, SVG Export Plug-In . SVG Version: 6.00 Build 0)  -->

<svg
   xmlns:dc="http://purl.org/dc/elements/1.1/"
   xmlns:cc="http://creativecommons.org/ns#"
   xmlns:rdf="http://www.w3.org/1999/02/22-rdf-syntax-ns#"
   xmlns:svg="http://www.w3.org/2000/svg"
   xmlns="http://www.w3.org/2000/svg"
   xmlns:sodipodi="http://sodipodi.sourceforge.net/DTD/sodipodi-0.dtd"
   xmlns:inkscape="http://www.inkscape.org/namespaces/inkscape"
   version="1.1"
   id="Capa_1"
   x="0px"
   y="0px"
   viewBox="0 0 98 98"
   style="enable-background:new 0 0 98 98;"
   xml:space="preserve"
   sodipodi:docname="ic_long_arrow_right..svg"
   inkscape:version="0.92.3 (2405546, 2018-03-11)"><metadata
   id="metadata41"><rdf:RDF><cc:Work
       rdf:about=""><dc:format>image/svg+xml</dc:format><dc:type
         rdf:resource="http://purl.org/dc/dcmitype/StillImage" /></cc:Work></rdf:RDF></metadata><defs
   id="defs39" /><sodipodi:namedview
   pagecolor="#ffffff"
   bordercolor="#666666"
   borderopacity="1"
   objecttolerance="10"
   gridtolerance="10"
   guidetolerance="10"
   inkscape:pageopacity="0"
   inkscape:pageshadow="2"
   inkscape:window-width="1858"
   inkscape:window-height="1057"
   id="namedview37"
   showgrid="false"
   inkscape:zoom="2.4081633"
   inkscape:cx="49"
   inkscape:cy="49"
   inkscape:window-x="54"
   inkscape:window-y="-8"
   inkscape:window-maximized="1"
   inkscape:current-layer="Capa_1" />
<g
   id="g4"
   transform="matrix(-1,0,0,1,98,0)">
	<polygon
   style="fill:#030104"
   points="23.918,57.863 98,57.867 98,40.102 23.914,40.102 23.918,24 0,49.002 23.914,74 "
   id="polygon2" />
</g>
<g
   id="g6"
   transform="matrix(-1,0,0,1,98,0)">
</g>
<g
   id="g8"
   transform="matrix(-1,0,0,1,98,0)">
</g>
<g
   id="g10"
   transform="matrix(-1,0,0,1,98,0)">
</g>
<g
   id="g12"
   transform="matrix(-1,0,0,1,98,0)">
</g>
<g
   id="g14"
   transform="matrix(-1,0,0,1,98,0)">
</g>
<g
   id="g16"
   transform="matrix(-1,0,0,1,98,0)">
</g>
<g
   id="g18"
   transform="matrix(-1,0,0,1,98,0)">
</g>
<g
   id="g20"
   transform="matrix(-1,0,0,1,98,0)">
</g>
<g
   id="g22"
   transform="matrix(-1,0,0,1,98,0)">
</g>
<g
   id="g24"
   transform="matrix(-1,0,0,1,98,0)">
</g>
<g
   id="g26"
   transform="matrix(-1,0,0,1,98,0)">
</g>
<g
   id="g28"
   transform="matrix(-1,0,0,1,98,0)">
</g>
<g
   id="g30"
   transform="matrix(-1,0,0,1,98,0)">
</g>
<g
   id="g32"
   transform="matrix(-1,0,0,1,98,0)">
</g>
<g
   id="g34"
   transform="matrix(-1,0,0,1,98,0)">
</g>
</svg>