<?xml version="1.0" encoding="UTF-8" standalone="no"?>
<svg
   xmlns:dc="http://purl.org/dc/elements/1.1/"
   xmlns:cc="http://creativecommons.org/ns#"
   xmlns:rdf="http://www.w3.org/1999/02/22-rdf-syntax-ns#"
   xmlns:svg="http://www.w3.org/2000/svg"
   xmlns="http://www.w3.org/2000/svg"
   xmlns:sodipodi="http://sodipodi.sourceforge.net/DTD/sodipodi-0.dtd"
   xmlns:inkscape="http://www.inkscape.org/namespaces/inkscape"
   height="24.0"
   viewBox="0 0 24.0 24.0"
   width="24.0"
   version="1.1"
   id="svg4"
   sodipodi:docname="ic_search_web.svg"
   inkscape:version="0.92.3 (2405546, 2018-03-11)">
  <metadata
     id="metadata10">
    <rdf:RDF>
      <cc:Work
         rdf:about="">
        <dc:format>image/svg+xml</dc:format>
        <dc:type
           rdf:resource="http://purl.org/dc/dcmitype/StillImage" />
        <dc:title />
      </cc:Work>
    </rdf:RDF>
  </metadata>
  <defs
     id="defs8" />
  <sodipodi:namedview
     pagecolor="#ffffff"
     bordercolor="#666666"
     borderopacity="1"
     objecttolerance="10"
     gridtolerance="10"
     guidetolerance="10"
     inkscape:pageopacity="0"
     inkscape:pageshadow="2"
     inkscape:window-width="1858"
     inkscape:window-height="1057"
     id="namedview6"
     showgrid="false"
     showguides="true"
     inkscape:guide-bbox="true"
     inkscape:zoom="64"
     inkscape:cx="8.5251626"
     inkscape:cy="13.509498"
     inkscape:window-x="54"
     inkscape:window-y="-8"
     inkscape:window-maximized="1"
     inkscape:current-layer="svg4">
    <sodipodi:guide
       position="5.542,19"
       orientation="0,1"
       id="guide146"
       inkscape:locked="false"
       inkscape:label=""
       inkscape:color="rgb(0,0,255)" />
    <sodipodi:guide
       position="5,9.7245763"
       orientation="1,0"
       id="guide148"
       inkscape:locked="false"
       inkscape:label=""
       inkscape:color="rgb(0,0,255)" />
    <sodipodi:guide
       position="11.923729,10"
       orientation="0,1"
       id="guide150"
       inkscape:locked="false"
       inkscape:label=""
       inkscape:color="rgb(0,0,255)" />
    <sodipodi:guide
       position="14,14.072034"
       orientation="1,0"
       id="guide152"
       inkscape:locked="false"
       inkscape:label=""
       inkscape:color="rgb(0,0,255)" />
    <sodipodi:guide
       position="9.1398305,14.5"
       orientation="0,1"
       id="guide154"
       inkscape:locked="false"
       inkscape:label=""
       inkscape:color="rgb(0,0,255)" />
    <sodipodi:guide
       position="9.5,17.45339"
       orientation="1,0"
       id="guide156"
       inkscape:locked="false"
       inkscape:label=""
       inkscape:color="rgb(0,0,255)" />
    <sodipodi:guide
       position="8.0212425,18.25"
       orientation="0,1"
       id="guide60"
       inkscape:locked="false"
       inkscape:label=""
       inkscape:color="rgb(0,0,255)" />
    <sodipodi:guide
       position="5.75,16.296602"
       orientation="1,0"
       id="guide64"
       inkscape:locked="false"
       inkscape:label=""
       inkscape:color="rgb(0,0,255)" />
    <sodipodi:guide
       position="10.69499,10.75"
       orientation="0,1"
       id="guide66"
       inkscape:locked="false"
       inkscape:label=""
       inkscape:color="rgb(0,0,255)" />
    <sodipodi:guide
       position="13.25,16.528621"
       orientation="1,0"
       id="guide68"
       inkscape:locked="false"
       inkscape:label=""
       inkscape:color="rgb(0,0,255)" />
  </sodipodi:namedview>
  <path
     d="M15.5,14h-0.79l-0.28,-0.27C15.41,12.59 16,11.11 16,9.5 16,5.91 13.09,3 9.5,3S3,5.91 3,9.5 5.91,16 9.5,16c1.61,0 3.09,-0.59 4.23,-1.57l0.27,0.28v0.79l5,4.99L20.49,19l-4.99,-5zM9.5,14C7.01,14 5,11.99 5,9.5S7.01,5 9.5,5 14,7.01 14,9.5 11.99,14 9.5,14z"
     fill="#FF000000"
     id="path2" />
  <path
     style="stroke-width:0.03385676"
     d="M 7.5734712,9.0243191 C 7.6199512,8.0007037 7.7505251,6.9634633 8.1319753,6.005645 6.8709288,6.484947 5.9199893,7.6844094 5.7515543,9.0243191 c 0.6073056,0 1.2146112,0 1.8219169,0 z"
     id="path27"
     inkscape:connector-curvature="0" />
  <path
     style="stroke-width:0.03385676"
     d="m 11.426529,9.0243191 c 0.607306,0 1.214612,0 1.821917,0 C 13.080011,7.6844094 12.129072,6.484947 10.868025,6.005645 c 0.381513,0.9568357 0.512069,1.996175 0.558504,3.0186741 z"
     id="path25"
     inkscape:connector-curvature="0" />
  <path
     style="stroke-width:0.03385676"
     d="M 9.5,5.75 C 9.1537937,6.0142137 9.0397475,6.4758274 8.9062422,6.870883 8.7079222,7.5711742 8.62171,8.2986814 8.5900996,9.0243191 c 0.6066444,0 1.2132888,0 1.8199334,0 C 10.354774,8.0302259 10.244144,7.002331 9.7923528,6.1005311 9.7149427,5.9719126 9.6362366,5.8247745 9.5,5.75 Z"
     id="path126"
     inkscape:connector-curvature="0" />
  <path
     inkscape:connector-curvature="0"
     style="stroke-width:0.03385676"
     d="m 7.5734712,9.975681 c -0.6073057,0 -1.2146113,0 -1.8219168,0 0.168435,1.33991 1.1193744,2.539372 2.3804209,3.018674 C 7.7505251,12.036537 7.6199512,10.999296 7.5734712,9.975681 Z"
     id="path27-7" />
  <path
     inkscape:connector-curvature="0"
     style="stroke-width:0.03385676"
     d="m 11.426529,9.975681 c -0.04644,1.022499 -0.176991,2.061838 -0.558504,3.018674 1.261047,-0.479302 2.211986,-1.678764 2.380421,-3.018674 -0.607305,0 -1.214611,0 -1.821917,0 z"
     id="path25-3" />
  <path
     inkscape:connector-curvature="0"
     style="stroke-width:0.03385676"
     d="m 9.5,13.25 c 0.1362366,-0.07478 0.2149428,-0.221913 0.2923528,-0.350531 0.4517912,-0.9018 0.5624212,-1.929695 0.6176802,-2.923788 -0.6066446,0 -1.213289,0 -1.8199334,0 0.03161,0.725638 0.1178226,1.453145 0.3161426,2.153436 C 9.0397475,12.524173 9.1537937,12.985786 9.5,13.25 Z"
     id="path126-7" />
</svg>
