<?xml version="1.0" encoding="UTF-8" standalone="no"?>
<svg
   xmlns:dc="http://purl.org/dc/elements/1.1/"
   xmlns:cc="http://creativecommons.org/ns#"
   xmlns:rdf="http://www.w3.org/1999/02/22-rdf-syntax-ns#"
   xmlns:svg="http://www.w3.org/2000/svg"
   xmlns="http://www.w3.org/2000/svg"
   xmlns:sodipodi="http://sodipodi.sourceforge.net/DTD/sodipodi-0.dtd"
   xmlns:inkscape="http://www.inkscape.org/namespaces/inkscape"
   height="24.0"
   viewBox="0 0 24.0 24.0"
   width="24.0"
   version="1.1"
   id="svg4"
   sodipodi:docname="ic_search_wiki.svg"
   inkscape:version="0.92.3 (2405546, 2018-03-11)">
  <metadata
     id="metadata10">
    <rdf:RDF>
      <cc:Work
         rdf:about="">
        <dc:format>image/svg+xml</dc:format>
        <dc:type
           rdf:resource="http://purl.org/dc/dcmitype/StillImage" />
        <dc:title></dc:title>
      </cc:Work>
    </rdf:RDF>
  </metadata>
  <defs
     id="defs8" />
  <sodipodi:namedview
     pagecolor="#ffffff"
     bordercolor="#666666"
     borderopacity="1"
     objecttolerance="10"
     gridtolerance="10"
     guidetolerance="10"
     inkscape:pageopacity="0"
     inkscape:pageshadow="2"
     inkscape:window-width="1205"
     inkscape:window-height="783"
     id="namedview6"
     showgrid="false"
     showguides="true"
     inkscape:guide-bbox="true"
     inkscape:zoom="2.4583333"
     inkscape:cx="11.896381"
     inkscape:cy="-3.0495317"
     inkscape:window-x="352"
     inkscape:window-y="241"
     inkscape:window-maximized="0"
     inkscape:current-layer="svg4">
    <sodipodi:guide
       position="5.542,19"
       orientation="0,1"
       id="guide146"
       inkscape:locked="false"
       inkscape:label=""
       inkscape:color="rgb(0,0,255)" />
    <sodipodi:guide
       position="5,9.7245763"
       orientation="1,0"
       id="guide148"
       inkscape:locked="false"
       inkscape:label=""
       inkscape:color="rgb(0,0,255)" />
    <sodipodi:guide
       position="11.923729,10"
       orientation="0,1"
       id="guide150"
       inkscape:locked="false"
       inkscape:label=""
       inkscape:color="rgb(0,0,255)" />
    <sodipodi:guide
       position="14,14.072034"
       orientation="1,0"
       id="guide152"
       inkscape:locked="false"
       inkscape:label=""
       inkscape:color="rgb(0,0,255)" />
    <sodipodi:guide
       position="9.5,17.45339"
       orientation="1,0"
       id="guide156"
       inkscape:locked="false"
       inkscape:label=""
       inkscape:color="rgb(0,0,255)" />
  </sodipodi:namedview>
  <path
     d="M15.5,14h-0.79l-0.28,-0.27C15.41,12.59 16,11.11 16,9.5 16,5.91 13.09,3 9.5,3S3,5.91 3,9.5 5.91,16 9.5,16c1.61,0 3.09,-0.59 4.23,-1.57l0.27,0.28v0.79l5,4.99L20.49,19l-4.99,-5zM9.5,14C7.01,14 5,11.99 5,9.5S7.01,5 9.5,5 14,7.01 14,9.5 11.99,14 9.5,14z"
     fill="#FF000000"
     id="path2" />
  <g
     style="fill-rule:evenodd;stroke-miterlimit:10;shape-rendering:geometricPrecision"
     id="g169"
     transform="matrix(0.06418584,0,0,0.06418584,5.2964693,6.0979807)">
    <path
       id="path158"
       d="m 120.85,29.21 c 0,0.41 -0.13,0.78 -0.38,1.12 -0.26,0.33 -0.53,0.5 -0.84,0.5 -2.49,0.24 -4.54,1.04 -6.12,2.41 -1.59,1.36 -3.22,3.97 -4.91,7.81 L 82.8,99.19 C 82.63,99.73 82.16,100 81.38,100 80.77,100 80.3,99.73 79.96,99.19 L 65.49,68.93 48.85,99.19 C 48.51,99.73 48.04,100 47.43,100 46.69,100 46.2,99.73 45.96,99.19 L 20.61,41.05 C 19.03,37.44 17.36,34.92 15.6,33.49 13.85,32.06 11.4,31.17 8.27,30.83 8,30.83 7.74,30.69 7.51,30.4 7.27,30.12 7.15,29.79 7.15,29.42 7.15,28.47 7.42,28 7.96,28 c 2.26,0 4.62,0.1 7.09,0.3 2.29,0.21 4.45,0.31 6.47,0.31 2.06,0 4.49,-0.1 7.29,-0.31 2.93,-0.2 5.53,-0.3 7.79,-0.3 0.54,0 0.81,0.47 0.81,1.42 0,0.94 -0.17,1.41 -0.5,1.41 -2.26,0.17 -4.04,0.75 -5.34,1.72 -1.3,0.98 -1.95,2.26 -1.95,3.85 0,0.81 0.27,1.82 0.81,3.03 L 51.38,86.74 63.27,64.28 52.19,41.05 C 50.2,36.91 48.56,34.23 47.28,33.03 46,31.84 44.06,31.1 41.46,30.83 c -0.24,0 -0.46,-0.14 -0.68,-0.43 -0.22,-0.28 -0.33,-0.61 -0.33,-0.98 0,-0.95 0.23,-1.42 0.71,-1.42 2.26,0 4.33,0.1 6.22,0.3 1.82,0.21 3.76,0.31 5.82,0.31 2.02,0 4.16,-0.1 6.42,-0.31 2.33,-0.2 4.62,-0.3 6.88,-0.3 0.54,0 0.81,0.47 0.81,1.42 0,0.94 -0.16,1.41 -0.5,1.41 -4.52,0.31 -6.78,1.59 -6.78,3.85 0,1.01 0.52,2.58 1.57,4.7 l 7.33,14.88 7.29,-13.61 c 1.01,-1.92 1.52,-3.54 1.52,-4.86 0,-3.1 -2.26,-4.75 -6.78,-4.96 -0.41,0 -0.61,-0.47 -0.61,-1.41 0,-0.34 0.1,-0.66 0.3,-0.96 0.21,-0.31 0.41,-0.46 0.61,-0.46 1.62,0 3.61,0.1 5.97,0.3 2.26,0.21 4.12,0.31 5.57,0.31 1.04,0 2.58,-0.09 4.6,-0.26 2.56,-0.23 4.71,-0.35 6.43,-0.35 0.4,0 0.6,0.4 0.6,1.21 0,1.08 -0.37,1.62 -1.11,1.62 -2.63,0.27 -4.75,1 -6.35,2.18 -1.6,1.18 -3.6,3.86 -5.99,8.04 l -9.72,17.97 13.16,26.81 19.43,-45.18 c 0.67,-1.65 1.01,-3.17 1.01,-4.55 0,-3.31 -2.26,-5.06 -6.78,-5.27 -0.41,0 -0.61,-0.47 -0.61,-1.41 0,-0.95 0.3,-1.42 0.91,-1.42 1.65,0 3.61,0.1 5.87,0.3 2.09,0.21 3.85,0.31 5.26,0.31 1.49,0 3.21,-0.1 5.16,-0.31 2.03,-0.2 3.85,-0.3 5.47,-0.3 0.47,0 0.71,0.4 0.71,1.21 z"
       inkscape:connector-curvature="0" />
  </g>
</svg>
